<svg xmlns="http://www.w3.org/2000/svg" viewBox="0 0 640 420"><defs><linearGradient id="g" x2="0" y2="1"><stop stop-color="#263553"/><stop offset=".65" stop-color="#e38d65"/><stop offset="1" stop-color="#f3c58a"/></linearGradient></defs><rect width="640" height="420" fill="url(#g)"/><circle cx="474" cy="164" r="47" fill="#ffe0a1"/><path d="M0 309h640v111H0z" fill="#243047"/><path d="M61 220h96v190H61zM178 164h122v246H178zM320 240h82v170h-82zM421 190h146v220H421z" fill="#344458"/><path d="M79 242h15v18H79zm35 0h15v18h-15zm80-44h17v20h-17zm38 0h17v20h-17zm-38 43h17v20h-17zm38 0h17v20h-17zm171 18h17v19h-17zm36 0h17v19h-17zm36 0h17v19h-17z" fill="#f5ce92"/><path d="M0 348h640" stroke="#f5ce92" stroke-width="4" opacity=".8"/><text x="320" y="393" text-anchor="middle" fill="#fff3dc" font-family="sans-serif" font-size="18" letter-spacing="3">BEFORE SUNRISE</text></svg>
